<?xml version="1.0" encoding="iso-8859-1"?>
<!-- Generator: Adobe Illustrator 19.0.0, SVG Export Plug-In . SVG Version: 6.00 Build 0)  -->
<svg version="1.1" id="Layer_1" xmlns="http://www.w3.org/2000/svg" xmlns:xlink="http://www.w3.org/1999/xlink" x="0px" y="0px"
	 viewBox="0 0 488.013 488.013" style="enable-background:new 0 0 488.013 488.013;" xml:space="preserve">
<path style="fill:#007AF4;" d="M422.413,260.806c13.6-31.2,16.8-69.6-8.8-94.4c-24.8-24.8-60.8-30.4-91.2-18.4
	c-0.8-45.6-37.6-82.4-84-82.4c-45.6-0.8-83.2,36.8-83.2,83.2l0,0c-8-3.2-13.6-4.8-21.6-4.8c-27.2,0-40,27.2-40,55.2
	c0,7.2-8.8,8-5.6,14.4c-1.6,0-3.2-0.8-5.6-0.8c-17.6,0-21.6,19.2-21.6,36.8c0,5.6-8.8,5.6-6.4,10.4c-32,12-54.4,44.8-54.4,80.8
	c0,46.4,22.4,85.6,68.8,93.6h350.4c46.4-8,68.8-47.2,68.8-93.6C487.213,304.006,455.213,272.006,422.413,260.806z"/>
<path style="fill:#00A6F9;" d="M430.413,248.806c13.6-31.2,8-68.8-16.8-93.6s-60.8-30.4-91.2-18.4c-0.8-45.6-37.6-82.4-84-82.4
	c-45.6,0-83.2,37.6-83.2,84l0,0c-8-3.2-13.6-4.8-21.6-4.8c-27.2,0-49.6,22.4-49.6,49.6c0,7.2,1.6,13.6,4,19.2
	c-1.6,0-3.2-0.8-5.6-0.8c-17.6,0-32,14.4-32,32c0,5.6,1.6,10.4,4,15.2c-32,12-54.4,41.6-54.4,77.6c-0.8,47.2,36.8,84,83.2,84h320
	c46.4,0,84-36.8,84-83.2C487.213,290.406,463.213,260.006,430.413,248.806z"/>
<circle style="fill:#00B3F9;" cx="355.213" cy="89.606" r="19.2"/>
<path style="fill:#007AF4;" d="M390.413,116.006c4.8,0,8.8-4,8.8-8.8s-4-8.8-8.8-8.8s-8.8,4-8.8,8.8
	C381.613,112.006,385.613,116.006,390.413,116.006z"/>
<g>
	<path style="fill:#0093F7;" d="M399.213,76.006c2.4,0,4.8-2.4,4.8-4.8s-2.4-4.8-4.8-4.8s-4.8,2.4-4.8,4.8
		C395.213,73.606,396.813,76.006,399.213,76.006z"/>
	<path style="fill:#0093F7;" d="M487.213,327.206c0-36.8-24-67.2-56.8-79.2c13.6-31.2,8-68-16.8-93.6
		c-24.8-24.8-60.8-30.4-91.2-18.4c-0.8-45.6-37.6-82.4-84-82.4c-45.6,0.8-83.2,38.4-83.2,84.8l0,0c-8-3.2-13.6-4.8-21.6-4.8
		c-27.2,0-49.6,22.4-49.6,49.6c0,6.4,0.8,11.2,3.2,16.8l211.2,210.4h104.8C449.613,410.406,487.213,373.606,487.213,327.206z"/>
</g>
<g>
	<path style="fill:#007AF4;" d="M243.213,211.206l73.6,73.6c8.8,8.8,8.8,23.2,0,32s-23.2,8.8-32,0l-41.6-40.8l-40.8,40.8
		c-8.8,8.8-23.2,8.8-32,0s-8.8-23.2,0-32L243.213,211.206z"/>
	<path style="fill:#007AF4;" d="M243.213,243.206c12.8,0,24,10.4,24,23.2v104c0,12.8-11.2,23.2-24,23.2c-12.8,0-24-10.4-24-23.2
		v-104C219.213,253.606,230.413,243.206,243.213,243.206z"/>
</g>
<g>
	<path style="fill:#FFFFFF;" d="M243.213,194.406l73.6,73.6c8.8,8.8,8.8,23.2,0,32s-23.2,8.8-32,0l-41.6-40.8l-40.8,40.8
		c-8.8,8.8-23.2,8.8-32,0s-8.8-23.2,0-32L243.213,194.406z"/>
	<path style="fill:#FFFFFF;" d="M243.213,227.206c12.8,0,24,10.4,24,23.2v104c0,12.8-11.2,23.2-24,23.2c-12.8,0-24-10.4-24-23.2
		v-104C219.213,236.806,230.413,227.206,243.213,227.206z"/>
</g>
<g>
</g>
<g>
</g>
<g>
</g>
<g>
</g>
<g>
</g>
<g>
</g>
<g>
</g>
<g>
</g>
<g>
</g>
<g>
</g>
<g>
</g>
<g>
</g>
<g>
</g>
<g>
</g>
<g>
</g>
</svg>
