<?xml version="1.0" encoding="utf-8"?>
<!-- Generator: Adobe Illustrator 23.0.0, SVG Export Plug-In . SVG Version: 6.00 Build 0)  -->
<svg version="1.1" id="Ñëîé_1" xmlns="http://www.w3.org/2000/svg" xmlns:xlink="http://www.w3.org/1999/xlink" x="0px" y="0px"
	 viewBox="0 0 680 546" style="enable-background:new 0 0 680 546;" xml:space="preserve">
<style type="text/css">
	.st0{display:none;fill:url(#SVGID_1_);}
	.st1{fill:url(#SVGID_2_);}
	.st2{fill:#EAEAEA;}
	.st3{fill:url(#SVGID_3_);}
	.st4{fill:url(#SVGID_4_);}
	.st5{fill:url(#SVGID_5_);}
	.st6{fill:#FFFFFF;}
	.st7{fill:url(#SVGID_6_);}
	.st8{fill:url(#SVGID_7_);}
	.st9{opacity:0.5;}
	.st10{fill:#380031;}
	.st11{opacity:0.5;fill:#380031;}
</style>
<radialGradient id="SVGID_1_" cx="303" cy="253.5" r="401.1024" fx="-66.03" fy="96.3377" gradientUnits="userSpaceOnUse">
	<stop  offset="0" style="stop-color:#000000"/>
	<stop  offset="1" style="stop-color:#000000"/>
</radialGradient>
<rect x="-143" y="-97" class="st0" width="892" height="701"/>
<radialGradient id="SVGID_2_" cx="340.6014" cy="273.4006" r="246.4031" fx="103.4043" fy="340.1242" gradientUnits="userSpaceOnUse">
	<stop  offset="0" style="stop-color:#FFFFFF"/>
	<stop  offset="1" style="stop-color:#FFFFFF"/>
</radialGradient>
<path class="st1" d="M578.32,232.89c24.55-47.68,18.32-105.72-16.6-146.42C524.36,42.93,467.02,9.57,388.61,55
	C235,144,276,202.26,155,186.13c-69.87-9.31-72.72,53.93-62.65,109.04c7.91,43.32,39.58,78.42,81.7,91.28
	c54.77,16.73,131.2,48.64,158.53,101.55c31.37,60.73,139.82-0.72,200.85-42.07c23.05-15.62,33.96-44.01,27.17-71.01
	C552.21,341.53,548.76,290.3,578.32,232.89z"/>
<g>
	<path class="st2" d="M368.25,445.9l-168.58-97.33c-2.46-1.42-2.15-3.9,0.69-5.53l108.2-62.47c2.84-1.64,7.13-1.82,9.59-0.4
		l168.58,97.33c2.46,1.42,2.15,3.9-0.69,5.53l-108.2,62.47C375,447.14,370.71,447.32,368.25,445.9z"/>
	
		<radialGradient id="SVGID_3_" cx="418.3646" cy="232.8464" r="116.2056" fx="498.1636" fy="256.3009" gradientUnits="userSpaceOnUse">
		<stop  offset="0" style="stop-color:#01C8EF"/>
		<stop  offset="0.2829" style="stop-color:#0899CB"/>
		<stop  offset="0.7734" style="stop-color:#134D8F"/>
		<stop  offset="1" style="stop-color:#172F78"/>
	</radialGradient>
	<path class="st3" d="M526.52,213.12l-173.54-100.2c-1.19-0.69-2.44-0.83-3.54-0.51v0l0,0c-0.01,0-0.01,0-0.02,0.01l-3.21,1.12
		l1.13,0.27c-0.45,0.54-0.82,1.2-1.06,1.98l-39.25,127.42c-0.97,3.16,0.45,7,3.18,8.57l173.54,100.2c0.42,0.24,0.85,0.41,1.28,0.52
		l-0.43,0.94l3.07-1.08l-0.01,0c1.26-0.5,2.29-1.62,2.79-3.25l39.25-127.43C530.67,218.53,529.25,214.69,526.52,213.12z"/>
	<radialGradient id="SVGID_4_" cx="331.9023" cy="342.8873" r="122.2675" gradientUnits="userSpaceOnUse">
		<stop  offset="0" style="stop-color:#01C8EF"/>
		<stop  offset="0.2829" style="stop-color:#0899CB"/>
		<stop  offset="0.7734" style="stop-color:#134D8F"/>
		<stop  offset="1" style="stop-color:#172F78"/>
	</radialGradient>
	<path class="st4" d="M477.54,356.74l0.06,0.07l-171.42-98.97c-2.52-1.46-6.93-1.27-9.84,0.41L185.6,322.2l-3.69-1.41l1.04,5.18l0,0
		c0.14,0.78,0.68,1.51,1.66,2.07l173,99.88c2.52,1.46,6.93,1.27,9.84-0.41l111.03-64.1c1.37-0.79,2.16-1.77,2.35-2.74l0.01,0.01
		l1.06-5.04L477.54,356.74z"/>
	
		<linearGradient id="SVGID_5_" gradientUnits="userSpaceOnUse" x1="-30.4626" y1="329.151" x2="-269.3766" y2="341.9099" gradientTransform="matrix(1 0 0 1 522.9122 0)">
		<stop  offset="0" style="stop-color:#2B47BF"/>
		<stop  offset="1" style="stop-color:#0CABD7"/>
	</linearGradient>
	<path class="st5" d="M357.79,423.37L183.56,322.77c-2.54-1.47-2.22-4.03,0.71-5.72l111.82-64.56c2.93-1.69,7.37-1.88,9.91-0.41
		l174.23,100.59c2.54,1.47,2.22,4.03-0.71,5.72L367.7,422.96C364.77,424.65,360.33,424.83,357.79,423.37z"/>
	<path class="st6" d="M183.56,319.85l174.23,100.59c2.54,1.47,6.98,1.28,9.91-0.41l111.82-64.56c0.89-0.51,1.51-1.11,1.91-1.73
		c1.06,1.45,0.4,3.32-1.91,4.66L367.7,422.96c-2.93,1.69-7.37,1.88-9.91,0.41L183.56,322.77c-1.77-1.02-2.12-2.57-1.2-3.99
		C182.65,319.17,183.03,319.54,183.56,319.85z"/>
	<radialGradient id="SVGID_6_" cx="415.4074" cy="233.489" r="116.0022" gradientUnits="userSpaceOnUse">
		<stop  offset="0" style="stop-color:#01C8EF"/>
		<stop  offset="0.2829" style="stop-color:#0899CB"/>
		<stop  offset="0.7734" style="stop-color:#134D8F"/>
		<stop  offset="1" style="stop-color:#172F78"/>
	</radialGradient>
	<path class="st7" d="M480.8,353.02l-173.54-100.2c-2.73-1.58-4.15-5.41-3.18-8.57l39.25-127.42c0.97-3.16,3.97-4.44,6.7-2.87
		l173.54,100.2c2.73,1.58,4.15,5.41,3.18,8.57L487.5,350.15C486.53,353.31,483.52,354.6,480.8,353.02z"/>
	<radialGradient id="SVGID_7_" cx="306.3522" cy="127.2193" r="305.9925" gradientUnits="userSpaceOnUse">
		<stop  offset="4.830920e-03" style="stop-color:#E0F1F4"/>
		<stop  offset="0.1389" style="stop-color:#D6EEF2"/>
		<stop  offset="0.3623" style="stop-color:#BDE5EE"/>
		<stop  offset="0.3686" style="stop-color:#BCE5EE"/>
		<stop  offset="0.5414" style="stop-color:#A4DEEA"/>
		<stop  offset="0.9045" style="stop-color:#67CAE0"/>
		<stop  offset="1" style="stop-color:#56C5DD"/>
	</radialGradient>
	<path class="st8" d="M479.16,348.56l-168.33-97.26c-2.61-1.51-3.97-5.18-3.04-8.21l37.52-121.82c0.93-3.02,3.8-4.25,6.41-2.75
		l168.33,97.26c2.61,1.51,3.97,5.18,3.04,8.21l-37.52,121.82C484.64,348.84,481.77,350.07,479.16,348.56z"/>
</g>
<g class="st9">
	<path class="st10" d="M270.47,304.33L264.7,301c-0.46-0.27-0.4-0.73,0.13-1.04l6.8-3.93c0.53-0.31,1.34-0.34,1.8-0.07l5.76,3.33
		c0.46,0.27,0.4,0.73-0.13,1.04l-6.8,3.93C271.74,304.56,270.93,304.6,270.47,304.33z"/>
	<path class="st10" d="M279.36,309.47l-5.76-3.33c-0.46-0.27-0.4-0.73,0.13-1.04l6.8-3.93c0.53-0.31,1.34-0.34,1.8-0.07l5.76,3.33
		c0.46,0.27,0.4,0.73-0.13,1.04l-6.8,3.93C280.64,309.7,279.83,309.74,279.36,309.47z"/>
	<path class="st10" d="M288.26,314.61l-5.76-3.33c-0.46-0.27-0.4-0.73,0.13-1.04l6.8-3.93c0.53-0.31,1.34-0.34,1.8-0.07l5.76,3.33
		c0.46,0.27,0.4,0.73-0.13,1.04l-6.8,3.93C289.53,314.84,288.73,314.87,288.26,314.61z"/>
	<path class="st10" d="M300.57,310.36l-5.76-3.33c-0.46-0.27-0.4-0.73,0.13-1.04l5.71-3.3c0.53-0.31,1.34-0.34,1.8-0.07l5.76,3.33
		c0.46,0.27,0.4,0.73-0.13,1.04l-5.71,3.3C301.84,310.6,301.03,310.63,300.57,310.36z"/>
	<path class="st10" d="M309.47,315.5l-5.76-3.33c-0.46-0.27-0.4-0.73,0.13-1.04l5.71-3.3c0.53-0.31,1.34-0.34,1.8-0.07l5.76,3.33
		c0.46,0.27,0.4,0.73-0.13,1.04l-5.71,3.3C310.74,315.73,309.93,315.77,309.47,315.5z"/>
	<path class="st10" d="M318.37,320.64l-5.76-3.33c-0.46-0.27-0.4-0.73,0.13-1.04l5.71-3.3c0.53-0.31,1.34-0.34,1.8-0.07l5.76,3.33
		c0.46,0.27,0.4,0.73-0.13,1.04l-5.71,3.3C319.64,320.87,318.83,320.9,318.37,320.64z"/>
	<path class="st10" d="M327.26,325.78l-5.76-3.33c-0.46-0.27-0.4-0.73,0.13-1.04l5.71-3.3c0.53-0.31,1.34-0.34,1.8-0.07l5.76,3.33
		c0.46,0.27,0.4,0.73-0.13,1.04l-5.71,3.3C328.54,326.01,327.73,326.04,327.26,325.78z"/>
	<path class="st10" d="M336.16,330.91l-5.76-3.33c-0.46-0.27-0.4-0.73,0.13-1.04l5.71-3.3c0.53-0.31,1.34-0.34,1.81-0.07l5.76,3.33
		c0.46,0.27,0.4,0.73-0.13,1.04l-5.71,3.3C337.43,331.15,336.63,331.18,336.16,330.91z"/>
	<path class="st10" d="M345.06,336.05l-5.76-3.33c-0.46-0.27-0.4-0.73,0.13-1.04l5.71-3.3c0.53-0.31,1.34-0.34,1.8-0.07l5.76,3.33
		c0.46,0.27,0.4,0.73-0.13,1.04l-5.71,3.3C346.33,336.28,345.52,336.32,345.06,336.05z"/>
	<path class="st10" d="M353.96,341.19l-5.76-3.33c-0.46-0.27-0.4-0.73,0.13-1.04l5.71-3.3c0.53-0.31,1.34-0.34,1.8-0.07l5.76,3.33
		c0.46,0.27,0.4,0.73-0.13,1.04l-5.71,3.3C355.23,341.42,354.42,341.45,353.96,341.19z"/>
	<path class="st10" d="M362.86,346.32L357.1,343c-0.46-0.27-0.4-0.73,0.13-1.04l5.71-3.3c0.53-0.31,1.34-0.34,1.8-0.07l5.76,3.33
		c0.46,0.27,0.4,0.73-0.13,1.04l-5.71,3.3C364.13,346.56,363.32,346.59,362.86,346.32z"/>
	<path class="st10" d="M371.76,351.46l-5.76-3.33c-0.46-0.27-0.4-0.73,0.13-1.04l5.71-3.3c0.53-0.31,1.34-0.34,1.8-0.07l5.76,3.33
		c0.46,0.27,0.4,0.73-0.13,1.04l-5.71,3.3C373.03,351.7,372.22,351.73,371.76,351.46z"/>
	<path class="st10" d="M380.65,356.6l-5.76-3.33c-0.46-0.27-0.4-0.73,0.13-1.04l5.71-3.3c0.53-0.31,1.34-0.34,1.8-0.07l5.76,3.33
		c0.46,0.27,0.4,0.73-0.13,1.04l-5.71,3.3C381.92,356.83,381.12,356.87,380.65,356.6z"/>
	<path class="st10" d="M313.68,307.93l-5.76-3.33c-0.46-0.27-0.4-0.73,0.13-1.04l5.71-3.3c0.53-0.31,1.34-0.34,1.8-0.07l5.76,3.33
		c0.46,0.27,0.4,0.73-0.13,1.04l-5.71,3.3C314.95,308.16,314.14,308.2,313.68,307.93z"/>
	<path class="st10" d="M304.65,302.72l-5.76-3.33c-0.46-0.27-0.4-0.73,0.13-1.04l5.71-3.3c0.53-0.31,1.34-0.34,1.8-0.07l5.76,3.33
		c0.46,0.27,0.4,0.73-0.13,1.04l-5.71,3.3C305.92,302.95,305.11,302.98,304.65,302.72z"/>
	<path class="st10" d="M295.6,297.49l-12.41-7.16c-0.46-0.27-0.4-0.73,0.13-1.04l5.71-3.3c0.53-0.31,1.34-0.34,1.8-0.07l12.41,7.16
		c0.46,0.27,0.4,0.73-0.13,1.04l-5.71,3.3C296.87,297.73,296.07,297.76,295.6,297.49z"/>
	<path class="st10" d="M301.93,291.14l-10.07-5.81c-0.46-0.27-0.4-0.73,0.13-1.04l5.71-3.3c0.53-0.31,1.34-0.34,1.8-0.07l10.07,5.81
		c0.46,0.27,0.4,0.73-0.13,1.04l-5.71,3.3C303.2,291.38,302.39,291.41,301.93,291.14z"/>
	<path class="st10" d="M322.58,313.07l-5.76-3.33c-0.46-0.27-0.4-0.73,0.13-1.04l5.71-3.3c0.53-0.31,1.34-0.34,1.8-0.07l5.76,3.33
		c0.46,0.27,0.4,0.73-0.13,1.04l-5.71,3.3C323.85,313.3,323.04,313.34,322.58,313.07z"/>
	<path class="st10" d="M331.48,318.21l-5.76-3.33c-0.46-0.27-0.4-0.73,0.13-1.04l5.71-3.3c0.53-0.31,1.34-0.34,1.8-0.07l5.76,3.33
		c0.46,0.27,0.4,0.73-0.13,1.04l-5.71,3.3C332.75,318.44,331.94,318.47,331.48,318.21z"/>
	<path class="st10" d="M340.38,323.34l-5.76-3.33c-0.46-0.27-0.4-0.73,0.13-1.04l5.71-3.3c0.53-0.31,1.34-0.34,1.8-0.07l5.76,3.33
		c0.46,0.27,0.4,0.73-0.13,1.04l-5.71,3.3C341.65,323.58,340.84,323.61,340.38,323.34z"/>
	<path class="st10" d="M349.27,328.48l-5.76-3.33c-0.46-0.27-0.4-0.73,0.13-1.04l5.71-3.3c0.53-0.31,1.34-0.34,1.8-0.07l5.76,3.33
		c0.46,0.27,0.4,0.73-0.13,1.04l-5.71,3.3C350.54,328.71,349.74,328.75,349.27,328.48z"/>
	<path class="st10" d="M358.17,333.62l-5.76-3.33c-0.46-0.27-0.4-0.73,0.13-1.04l5.71-3.3c0.53-0.31,1.34-0.34,1.8-0.07l5.76,3.33
		c0.46,0.27,0.4,0.73-0.13,1.04l-5.71,3.3C359.44,333.85,358.63,333.88,358.17,333.62z"/>
	<path class="st10" d="M367.07,338.76l-5.76-3.33c-0.46-0.27-0.4-0.73,0.13-1.04l5.71-3.3c0.53-0.31,1.34-0.34,1.8-0.07l5.76,3.33
		c0.46,0.27,0.4,0.73-0.13,1.04l-5.71,3.3C368.34,338.99,367.53,339.02,367.07,338.76z"/>
	<path class="st10" d="M375.97,343.89l-5.76-3.33c-0.46-0.27-0.4-0.73,0.13-1.04l5.71-3.3c0.53-0.31,1.34-0.34,1.8-0.07l5.76,3.33
		c0.46,0.27,0.4,0.73-0.13,1.04l-5.71,3.3C377.24,344.13,376.43,344.16,375.97,343.89z"/>
	<path class="st10" d="M384.87,349.03l-5.76-3.33c-0.46-0.27-0.4-0.73,0.13-1.04l5.71-3.3c0.53-0.31,1.34-0.34,1.8-0.07l5.76,3.33
		c0.46,0.27,0.4,0.73-0.13,1.04l-5.71,3.3C386.14,349.26,385.33,349.3,384.87,349.03z"/>
	<path class="st10" d="M393.77,354.17l-5.76-3.33c-0.46-0.27-0.4-0.73,0.13-1.04l5.71-3.3c0.53-0.31,1.34-0.34,1.8-0.07l5.76,3.33
		c0.46,0.27,0.4,0.73-0.13,1.04l-5.71,3.3C395.04,354.4,394.23,354.43,393.77,354.17z"/>
	<path class="st10" d="M409.58,363.3l-12.57-7.26c-0.46-0.27-0.4-0.73,0.13-1.04l5.71-3.3c0.53-0.31,1.34-0.34,1.8-0.07l12.57,7.26
		c0.46,0.27,0.4,0.73-0.13,1.04l-5.71,3.3C410.86,363.53,410.05,363.57,409.58,363.3z"/>
	<path class="st10" d="M426.91,353.3l-10.61-6.13c-0.46-0.27-0.4-0.73,0.13-1.04l5.71-3.3c0.53-0.31,1.34-0.34,1.8-0.07l10.61,6.13
		c0.46,0.27,0.4,0.73-0.13,1.04l-5.71,3.3C428.18,353.53,427.37,353.57,426.91,353.3z"/>
	<path class="st10" d="M338.16,312.06l-5.76-3.33c-0.46-0.27-0.4-0.73,0.13-1.04l5.71-3.3c0.53-0.31,1.34-0.34,1.8-0.07l5.76,3.33
		c0.46,0.27,0.4,0.73-0.13,1.04l-5.71,3.3C339.43,312.3,338.62,312.33,338.16,312.06z"/>
	<path class="st10" d="M329.04,306.8l-5.76-3.33c-0.46-0.27-0.4-0.73,0.13-1.04l5.71-3.3c0.53-0.31,1.34-0.34,1.8-0.07l5.76,3.33
		c0.46,0.27,0.4,0.73-0.13,1.04l-5.71,3.3C330.31,307.03,329.51,307.06,329.04,306.8z"/>
	<path class="st10" d="M319.92,301.53l-5.76-3.33c-0.46-0.27-0.4-0.73,0.13-1.04l5.71-3.3c0.53-0.31,1.34-0.34,1.8-0.07l5.76,3.33
		c0.46,0.27,0.4,0.73-0.13,1.04l-5.71,3.3C321.19,301.77,320.39,301.8,319.92,301.53z"/>
	<path class="st10" d="M310.8,296.27l-5.76-3.33c-0.46-0.27-0.4-0.73,0.13-1.04l5.71-3.3c0.53-0.31,1.34-0.34,1.8-0.07l5.76,3.33
		c0.46,0.27,0.4,0.73-0.13,1.04l-5.71,3.3C312.07,296.5,311.27,296.53,310.8,296.27z"/>
	<path class="st10" d="M347.06,317.2l-5.76-3.33c-0.46-0.27-0.4-0.73,0.13-1.04l5.71-3.3c0.53-0.31,1.34-0.34,1.8-0.07l5.76,3.33
		c0.46,0.27,0.4,0.73-0.13,1.04l-5.71,3.3C348.33,317.43,347.52,317.47,347.06,317.2z"/>
	<path class="st10" d="M355.96,322.34l-5.76-3.33c-0.46-0.27-0.4-0.73,0.13-1.04l5.71-3.3c0.53-0.31,1.34-0.34,1.8-0.07l5.76,3.33
		c0.46,0.27,0.4,0.73-0.13,1.04l-5.71,3.3C357.23,322.57,356.42,322.6,355.96,322.34z"/>
	<path class="st10" d="M364.86,327.48l-5.76-3.33c-0.46-0.27-0.4-0.73,0.13-1.04l5.71-3.3c0.53-0.31,1.34-0.34,1.8-0.07l5.76,3.33
		c0.46,0.27,0.4,0.73-0.13,1.04l-5.71,3.3C366.13,327.71,365.32,327.74,364.86,327.48z"/>
	<path class="st10" d="M373.76,332.61l-5.76-3.33c-0.46-0.27-0.4-0.73,0.13-1.04l5.71-3.3c0.53-0.31,1.34-0.34,1.81-0.07l5.76,3.33
		c0.46,0.27,0.4,0.73-0.13,1.04l-5.71,3.3C375.03,332.85,374.22,332.88,373.76,332.61z"/>
	<path class="st10" d="M382.65,337.75l-5.76-3.33c-0.46-0.27-0.4-0.73,0.13-1.04l5.71-3.3c0.53-0.31,1.34-0.34,1.8-0.07l5.76,3.33
		c0.46,0.27,0.4,0.73-0.13,1.04l-5.71,3.3C383.92,337.98,383.12,338.02,382.65,337.75z"/>
	<path class="st10" d="M391.55,342.89l-5.76-3.33c-0.46-0.27-0.4-0.73,0.13-1.04l5.71-3.3c0.53-0.31,1.34-0.34,1.8-0.07l5.76,3.33
		c0.46,0.27,0.4,0.73-0.13,1.04l-5.71,3.3C392.82,343.12,392.01,343.15,391.55,342.89z"/>
	<path class="st10" d="M400.45,348.02l-5.76-3.33c-0.46-0.27-0.4-0.73,0.13-1.04l5.71-3.3c0.53-0.31,1.34-0.34,1.8-0.07l5.76,3.33
		c0.46,0.27,0.4,0.73-0.13,1.04l-5.71,3.3C401.72,348.26,400.91,348.29,400.45,348.02z"/>
	<path class="st10" d="M409.35,353.16l-5.76-3.33c-0.46-0.27-0.4-0.73,0.13-1.04l5.71-3.3c0.53-0.31,1.34-0.34,1.8-0.07l5.76,3.33
		c0.46,0.27,0.4,0.73-0.13,1.04l-5.71,3.3C410.62,353.4,409.81,353.43,409.35,353.16z"/>
	<path class="st10" d="M418.25,358.3l-5.76-3.33c-0.46-0.27-0.4-0.73,0.13-1.04l5.71-3.3c0.53-0.31,1.34-0.34,1.8-0.07l5.76,3.33
		c0.46,0.27,0.4,0.73-0.13,1.04l-5.71,3.3C419.52,358.53,418.71,358.57,418.25,358.3z"/>
	<path class="st10" d="M333.48,299.36l-5.76-3.33c-0.46-0.27-0.4-0.73,0.13-1.04l5.71-3.3c0.53-0.31,1.34-0.34,1.8-0.07l5.76,3.33
		c0.46,0.27,0.4,0.73-0.13,1.04l-5.71,3.3C334.75,299.59,333.94,299.62,333.48,299.36z"/>
	<path class="st10" d="M324.62,294.24l-5.76-3.33c-0.46-0.27-0.4-0.73,0.13-1.04l5.71-3.3c0.53-0.31,1.34-0.34,1.8-0.07l5.76,3.33
		c0.46,0.27,0.4,0.73-0.13,1.04l-5.71,3.3C325.89,294.48,325.09,294.51,324.62,294.24z"/>
	<path class="st10" d="M315.77,289.13l-5.76-3.33c-0.46-0.27-0.4-0.73,0.13-1.04l5.71-3.3c0.53-0.31,1.34-0.34,1.8-0.07l5.76,3.33
		c0.46,0.27,0.4,0.73-0.13,1.04l-5.71,3.3C317.04,289.37,316.23,289.4,315.77,289.13z"/>
	<path class="st10" d="M306.91,284.02l-5.76-3.33c-0.46-0.27-0.4-0.73,0.13-1.04l5.71-3.3c0.53-0.31,1.34-0.34,1.8-0.07l5.76,3.33
		c0.46,0.27,0.4,0.73-0.13,1.04l-5.71,3.3C308.19,284.25,307.38,284.29,306.91,284.02z"/>
	<path class="st10" d="M316.02,278.76l-5.76-3.33c-0.46-0.27-0.4-0.73,0.13-1.04l1.89-1.09c0.53-0.31,1.34-0.34,1.8-0.07l5.76,3.33
		c0.46,0.27,0.4,0.73-0.13,1.04l-1.89,1.09C317.29,279,316.48,279.03,316.02,278.76z"/>
	<path class="st10" d="M327.57,285.43l-5.76-3.33c-0.46-0.27-0.4-0.73,0.13-1.04l1.89-1.09c0.53-0.31,1.34-0.34,1.8-0.07l5.76,3.33
		c0.46,0.27,0.4,0.73-0.13,1.04l-1.89,1.09C328.84,285.67,328.04,285.7,327.57,285.43z"/>
	<path class="st10" d="M336.39,290.53l-5.76-3.33c-0.46-0.27-0.4-0.73,0.13-1.04l1.89-1.09c0.53-0.31,1.34-0.34,1.8-0.07l5.76,3.33
		c0.46,0.27,0.4,0.73-0.13,1.04l-1.89,1.09C337.66,290.76,336.85,290.79,336.39,290.53z"/>
	<path class="st10" d="M345.21,295.62l-5.76-3.33c-0.46-0.27-0.4-0.73,0.13-1.04l1.89-1.09c0.53-0.31,1.34-0.34,1.8-0.07l5.76,3.33
		c0.46,0.27,0.4,0.73-0.13,1.04l-1.89,1.09C346.48,295.85,345.67,295.88,345.21,295.62z"/>
	<path class="st10" d="M354.02,300.71l-5.76-3.33c-0.46-0.27-0.4-0.73,0.13-1.04l1.89-1.09c0.53-0.31,1.34-0.34,1.8-0.07l5.76,3.33
		c0.46,0.27,0.4,0.73-0.13,1.04l-1.89,1.09C355.3,300.94,354.49,300.97,354.02,300.71z"/>
	<path class="st10" d="M403.25,329.13l-5.76-3.33c-0.46-0.27-0.4-0.73,0.13-1.04l1.89-1.09c0.53-0.31,1.34-0.34,1.8-0.07l5.76,3.33
		c0.46,0.27,0.4,0.73-0.13,1.04l-1.89,1.09C404.52,329.36,403.71,329.39,403.25,329.13z"/>
	<path class="st10" d="M412.07,334.22l-5.76-3.33c-0.46-0.27-0.4-0.73,0.13-1.04l1.89-1.09c0.53-0.31,1.34-0.34,1.8-0.07l5.76,3.33
		c0.46,0.27,0.4,0.73-0.13,1.04l-1.89,1.09C413.34,334.45,412.53,334.48,412.07,334.22z"/>
	<path class="st10" d="M420.88,339.31l-5.76-3.33c-0.46-0.27-0.4-0.73,0.13-1.04l1.89-1.09c0.53-0.31,1.34-0.34,1.8-0.07l5.76,3.33
		c0.46,0.27,0.4,0.73-0.13,1.04l-1.89,1.09C422.15,339.54,421.35,339.57,420.88,339.31z"/>
	<path class="st10" d="M429.7,344.4l-5.76-3.33c-0.46-0.27-0.4-0.73,0.13-1.04l1.89-1.09c0.53-0.31,1.34-0.34,1.8-0.07l5.76,3.33
		c0.46,0.27,0.4,0.73-0.13,1.04l-1.89,1.09C430.97,344.63,430.16,344.67,429.7,344.4z"/>
	<path class="st10" d="M342.37,304.49l-5.76-3.33c-0.46-0.27-0.4-0.73,0.13-1.04l5.71-3.3c0.53-0.31,1.34-0.34,1.8-0.07l5.76,3.33
		c0.46,0.27,0.4,0.73-0.13,1.04l-5.71,3.3C343.65,304.73,342.84,304.76,342.37,304.49z"/>
	<path class="st10" d="M351.27,309.63l-5.76-3.33c-0.46-0.27-0.4-0.73,0.13-1.04l5.71-3.3c0.53-0.31,1.34-0.34,1.8-0.07l5.76,3.33
		c0.46,0.27,0.4,0.73-0.13,1.04l-5.71,3.3C352.54,309.86,351.74,309.9,351.27,309.63z"/>
	<path class="st10" d="M360.17,314.77l-5.76-3.33c-0.46-0.27-0.4-0.73,0.13-1.04l5.71-3.3c0.53-0.31,1.34-0.34,1.8-0.07l5.76,3.33
		c0.46,0.27,0.4,0.73-0.13,1.04l-5.71,3.3C361.44,315,360.63,315.04,360.17,314.77z"/>
	<path class="st10" d="M369.07,319.91l-5.76-3.33c-0.46-0.27-0.4-0.73,0.13-1.04l5.71-3.3c0.53-0.31,1.34-0.34,1.8-0.07l5.76,3.33
		c0.46,0.27,0.4,0.73-0.13,1.04l-5.71,3.3C370.34,320.14,369.53,320.17,369.07,319.91z"/>
	<path class="st10" d="M377.97,325.04l-5.76-3.33c-0.46-0.27-0.4-0.73,0.13-1.04l5.71-3.3c0.53-0.31,1.34-0.34,1.8-0.07l5.76,3.33
		c0.46,0.27,0.4,0.73-0.13,1.04l-5.71,3.3C379.24,325.28,378.43,325.31,377.97,325.04z"/>
	<path class="st10" d="M386.87,330.18l-5.76-3.33c-0.46-0.27-0.4-0.73,0.13-1.04l5.71-3.3c0.53-0.31,1.34-0.34,1.8-0.07l5.76,3.33
		c0.46,0.27,0.4,0.73-0.13,1.04l-5.71,3.3C388.14,330.41,387.33,330.45,386.87,330.18z"/>
	<path class="st10" d="M395.76,335.32l-5.76-3.33c-0.46-0.27-0.4-0.73,0.13-1.04l5.71-3.3c0.53-0.31,1.34-0.34,1.8-0.07l5.76,3.33
		c0.46,0.27,0.4,0.73-0.13,1.04l-5.71,3.3C397.04,335.55,396.23,335.58,395.76,335.32z"/>
	<path class="st10" d="M404.66,340.46l-5.76-3.33c-0.46-0.27-0.4-0.73,0.13-1.04l5.71-3.3c0.53-0.31,1.34-0.34,1.8-0.07l5.76,3.33
		c0.46,0.27,0.4,0.73-0.13,1.04l-5.71,3.3C405.93,340.69,405.13,340.72,404.66,340.46z"/>
	<path class="st10" d="M413.56,345.59l-5.76-3.33c-0.46-0.27-0.4-0.73,0.13-1.04l5.71-3.3c0.53-0.31,1.34-0.34,1.8-0.07l5.76,3.33
		c0.46,0.27,0.4,0.73-0.13,1.04l-5.71,3.3C414.83,345.83,414.02,345.86,413.56,345.59z"/>
	<path class="st10" d="M291.5,305.13l-16.97-9.8c-0.46-0.27-0.4-0.73,0.13-1.04l5.71-3.3c0.53-0.31,1.34-0.34,1.8-0.07l16.97,9.8
		c0.46,0.27,0.4,0.73-0.13,1.04l-5.71,3.3C292.77,305.36,291.96,305.39,291.5,305.13z"/>
	<path class="st10" d="M400.82,368.24l-16.97-9.8c-0.46-0.27-0.4-0.73,0.13-1.04l5.71-3.3c0.53-0.31,1.34-0.34,1.8-0.07l16.97,9.8
		c0.46,0.27,0.4,0.73-0.13,1.04l-5.71,3.3C402.09,368.48,401.28,368.51,400.82,368.24z"/>
	<path class="st10" d="M365.23,359.04l-5.76-3.33c-0.46-0.27-0.4-0.73,0.13-1.04l6.8-3.93c0.53-0.31,1.34-0.34,1.81-0.07l5.76,3.33
		c0.46,0.27,0.4,0.73-0.13,1.04l-6.8,3.93C366.5,359.28,365.7,359.31,365.23,359.04z"/>
	<path class="st10" d="M300.61,321.74l-9.21-5.32c-0.46-0.27-0.4-0.73,0.13-1.04l6.8-3.93c0.53-0.31,1.34-0.34,1.8-0.07l9.21,5.32
		c0.46,0.27,0.4,0.73-0.13,1.04l-6.8,3.93C301.89,321.97,301.08,322,300.61,321.74z"/>
	<path class="st10" d="M356.66,354.09l-9.21-5.32c-0.46-0.27-0.4-0.73,0.13-1.04l6.8-3.93c0.53-0.31,1.34-0.34,1.81-0.07l9.21,5.32
		c0.46,0.27,0.4,0.73-0.13,1.04l-6.8,3.93C357.93,354.33,357.12,354.36,356.66,354.09z"/>
	<path class="st10" d="M313.45,329.15l-9.21-5.32c-0.46-0.27-0.4-0.73,0.13-1.04l6.8-3.93c0.53-0.31,1.34-0.34,1.8-0.07l9.21,5.32
		c0.46,0.27,0.4,0.73-0.13,1.04l-6.8,3.93C314.72,329.38,313.92,329.42,313.45,329.15z"/>
	<path class="st10" d="M313.04,318.82l40.06,23.13c0.5,0.29,0.5,0.75,0,1.04l-6.94,4c-0.5,0.29-1.3,0.29-1.8,0l-40.06-23.13
		L313.04,318.82z"/>
	<path class="st10" d="M390.1,368.36l6.42,3.71c0.38,0.22,0.33,0.6-0.11,0.85l-2.78,1.61c-0.44,0.25-1.1,0.28-1.48,0.06l-6.42-3.71
		c-0.38-0.22-0.33-0.6,0.11-0.85l2.78-1.61C389.06,368.17,389.72,368.14,390.1,368.36z"/>
	<path class="st10" d="M381.13,363.18l6.42,3.71c0.38,0.22,0.33,0.6-0.11,0.85l-2.78,1.61c-0.44,0.25-1.1,0.28-1.48,0.06l-6.42-3.71
		c-0.38-0.22-0.33-0.6,0.11-0.85l2.78-1.61C380.09,362.99,380.75,362.96,381.13,363.18z"/>
	<path class="st10" d="M372.23,358.04l6.42,3.71c0.38,0.22,0.33,0.6-0.11,0.85l-2.78,1.61c-0.44,0.25-1.1,0.28-1.48,0.06l-6.42-3.71
		c-0.38-0.22-0.33-0.6,0.11-0.85l2.78-1.61C371.19,357.85,371.85,357.82,372.23,358.04z"/>
	<path class="st10" d="M386.04,360.34l6.42,3.71c0.38,0.22,0.33,0.6-0.11,0.85l-2.78,1.61c-0.44,0.25-1.1,0.28-1.48,0.06l-6.42-3.71
		c-0.38-0.22-0.33-0.6,0.11-0.85l2.78-1.61C385,360.15,385.67,360.12,386.04,360.34z"/>
</g>
<path class="st11" d="M313.9,377.91c-1.52,0-2.97-0.31-4.08-0.96l-44.72-25.82c-1.15-0.67-1.79-1.61-1.79-2.66
	c0-1.23,0.88-2.44,2.42-3.33l23.02-13.29c2.78-1.61,6.87-1.77,9.3-0.36l44.72,25.82c1.15,0.66,1.79,1.61,1.79,2.66
	c0,1.23-0.88,2.44-2.42,3.33l-23.02,13.29C317.6,377.47,315.7,377.91,313.9,377.91z M310.35,376.02c2.09,1.21,5.78,1.04,8.21-0.36
	l23.02-13.29c1.19-0.69,1.87-1.56,1.87-2.39c0-0.83-0.68-1.4-1.24-1.73l-44.72-25.82c-2.09-1.21-5.78-1.05-8.21,0.36l-23.02,13.29
	c-1.19,0.69-1.87,1.56-1.87,2.39c0,0.83,0.68,1.4,1.24,1.73L310.35,376.02z"/>
<g>
	<g>
		<path class="st6" d="M398.35,178.14l-10.53-6.08c-0.98-0.56-1.5-1.92-1.17-3.03l0,0c0.33-1.11,1.39-1.55,2.37-0.99l10.53,6.08
			c0.98,0.56,1.5,1.92,1.17,3.03l0,0C400.39,178.26,399.33,178.7,398.35,178.14z"/>
		<path class="st6" d="M423.44,192.62l-15.53-8.97c-0.98-0.56-1.5-1.92-1.17-3.03l0,0c0.33-1.11,1.39-1.55,2.37-0.99l15.53,8.97
			c0.98,0.56,1.5,1.92,1.17,3.03l0,0C425.48,192.74,424.42,193.18,423.44,192.62z"/>
		<path class="st6" d="M377.11,225.03l-10.53-6.08c-0.98-0.56-1.5-1.92-1.17-3.03l0,0c0.33-1.11,1.39-1.55,2.37-0.99l10.53,6.08
			c0.98,0.56,1.5,1.92,1.17,3.03l0,0C379.15,225.15,378.09,225.59,377.11,225.03z"/>
		<path class="st6" d="M399.47,237.94l-15.53-8.97c-0.98-0.56-1.5-1.92-1.17-3.03l0,0c0.33-1.11,1.39-1.55,2.37-0.99l15.53,8.97
			c0.98,0.56,1.5,1.92,1.17,3.03l0,0C401.51,238.06,400.45,238.5,399.47,237.94z"/>
		<path class="st6" d="M366.8,169.78l-6.58-3.8c-0.98-0.56-1.5-1.92-1.17-3.03l0,0c0.33-1.11,1.39-1.55,2.37-0.99l6.58,3.8
			c0.98,0.56,1.5,1.92,1.17,3.03l0,0C368.84,169.9,367.78,170.34,366.8,169.78z"/>
		<path class="st6" d="M377.11,185.88L357,174.28c-0.98-0.56-1.5-1.92-1.17-3.03l0,0c0.33-1.11,1.39-1.55,2.37-0.99l20.1,11.61
			c0.98,0.56,1.5,1.92,1.17,3.03l0,0C379.15,186.01,378.09,186.45,377.11,185.88z"/>
		<path class="st6" d="M357.88,194.19l-6.58-3.8c-0.98-0.56-1.5-1.92-1.17-3.03l0,0c0.33-1.11,1.39-1.55,2.37-0.99l6.58,3.8
			c0.98,0.56,1.5,1.92,1.17,3.03l0,0C359.92,194.31,358.86,194.75,357.88,194.19z"/>
		<path class="st6" d="M401.9,259.06l-17.57-10.15c-0.98-0.56-1.5-1.92-1.17-3.03l0,0c0.33-1.11,1.39-1.55,2.37-0.99l17.57,10.15
			c0.98,0.56,1.5,1.92,1.17,3.03l0,0C403.93,259.18,402.87,259.62,401.9,259.06z"/>
		<path class="st6" d="M349.46,209.54l-4.22-2.44c-0.98-0.56-1.5-1.92-1.17-3.03l0,0c0.33-1.11,1.39-1.55,2.37-0.99l4.22,2.44
			c0.98,0.56,1.5,1.92,1.17,3.03l0,0C351.5,209.67,350.44,210.11,349.46,209.54z"/>
		<path class="st6" d="M344.76,227.27l-5.24-3.03c-0.98-0.56-1.5-1.92-1.17-3.03l0,0c0.33-1.11,1.39-1.55,2.37-0.99l5.24,3.03
			c0.98,0.56,1.5,1.92,1.17,3.03l0,0C346.8,227.39,345.74,227.83,344.76,227.27z"/>
		<path class="st6" d="M366.66,238.85l-13.83-7.98c-0.98-0.56-1.5-1.92-1.17-3.03l0,0c0.33-1.11,1.39-1.55,2.37-0.99l13.83,7.98
			c0.98,0.56,1.5,1.92,1.17,3.03l0,0C368.7,238.97,367.64,239.41,366.66,238.85z"/>
		<path class="st6" d="M358.87,244.08l-9.94-5.74c-0.98-0.56-1.5-1.92-1.17-3.03l0,0c0.33-1.11,1.39-1.55,2.37-0.99l9.94,5.74
			c0.98,0.56,1.5,1.92,1.17,3.03l0,0C360.91,244.2,359.85,244.64,358.87,244.08z"/>
		<path class="st6" d="M416.97,267.81l-6.39-3.69c-0.98-0.56-1.5-1.92-1.17-3.03l0,0c0.33-1.11,1.39-1.55,2.37-0.99l6.39,3.69
			c0.98,0.56,1.5,1.92,1.17,3.03l0,0C419.01,267.93,417.95,268.37,416.97,267.81z"/>
		<path class="st6" d="M392.53,214.21l-17.57-10.15c-0.98-0.56-1.5-1.92-1.17-3.03l0,0c0.33-1.11,1.39-1.55,2.37-0.99l17.57,10.15
			c0.98,0.56,1.5,1.92,1.17,3.03l0,0C394.57,214.34,393.51,214.78,392.53,214.21z"/>
	</g>
	<path class="st6" d="M384.58,199.56l-30.63-17.68c-0.98-0.56-1.5-1.92-1.17-3.03l0,0c0.33-1.11,1.39-1.55,2.37-0.99l30.63,17.68
		c0.98,0.56,1.5,1.92,1.17,3.03l0,0C386.61,199.68,385.55,200.13,384.58,199.56z"/>
	<path class="st6" d="M376.54,214.84l-17.57-10.15c-0.98-0.56-1.5-1.92-1.17-3.03l0,0c0.33-1.11,1.39-1.55,2.37-0.99l17.57,10.15
		c0.98,0.56,1.5,1.92,1.17,3.03l0,0C378.58,214.96,377.52,215.4,376.54,214.84z"/>
	<path class="st6" d="M405.86,221.91l-6.39-3.69c-0.98-0.56-1.5-1.92-1.17-3.03l0,0c0.33-1.11,1.39-1.55,2.37-0.99l6.39,3.69
		c0.98,0.56,1.5,1.92,1.17,3.03l0,0C407.9,222.03,406.84,222.47,405.86,221.91z"/>
	<path class="st6" d="M470.81,219.97L433,198.14c-0.98-0.56-1.5-1.92-1.17-3.03l0,0c0.33-1.11,1.39-1.55,2.37-0.99l37.81,21.83
		c0.98,0.56,1.5,1.92,1.17,3.03l0,0C472.85,220.09,471.79,220.53,470.81,219.97z"/>
	<path class="st6" d="M375.07,233.71l-21.12-12.2c-0.98-0.56-1.5-1.92-1.17-3.03l0,0c0.33-1.11,1.39-1.55,2.37-0.99l21.12,12.2
		c0.98,0.56,1.5,1.92,1.17,3.03l0,0C377.11,233.83,376.05,234.28,375.07,233.71z"/>
	<path class="st6" d="M378.26,166.54l-15.53-8.97c-0.98-0.56-1.5-1.92-1.17-3.03l0,0c0.33-1.11,1.39-1.55,2.37-0.99l15.53,8.97
		c0.98,0.56,1.5,1.92,1.17,3.03l0,0C380.3,166.66,379.24,167.1,378.26,166.54z"/>
	<path class="st6" d="M351.59,248.72l-17.99-10.38c-0.98-0.56-1.5-1.92-1.17-3.03l0,0c0.33-1.11,1.39-1.55,2.37-0.99l17.99,10.39
		c0.98,0.56,1.5,1.92,1.17,3.03l0,0C353.63,248.84,352.57,249.29,351.59,248.72z"/>
</g>
<path class="st6" d="M450.53,242.29l-27.83-16.07c-4-2.31-5.36-7.42-3.06-11.41l3.78-6.55c2.31-4,7.42-5.36,11.41-3.06l27.83,16.07
	c4,2.31,5.36,7.42,3.06,11.41l-3.78,6.55C459.63,243.23,454.52,244.59,450.53,242.29z"/>
</svg>
